HIERARCHY
ROOT Hips
{
  OFFSET 13.6774 106.653 -34.4427
  CHANNELS 6 Xposition Yposition Zposition Zrotation Xrotation Yrotation
  JOINT ToSpine
  {
    OFFSET -2.69724 7.43032 -0.144315
    CHANNELS 3 Zrotation Xrotation Yrotation
    JOINT Spine
    {
      OFFSET -0.0310711 10.7595 1.96963
      CHANNELS 3 Zrotation Xrotation Yrotation
      JOINT Spine1
      {
        OFFSET 19.9056 3.91189 0.764692
        CHANNELS 3 Zrotation Xrotation Yrotation
        JOINT Neck
        {
          OFFSET 25.9749 7.03908 -0.130764
          CHANNELS 3 Zrotation Xrotation Yrotation
          JOINT Head
          {
            OFFSET 9.52751 0.295786 -0.907742
            CHANNELS 3 Zrotation Xrotation Yrotation
            End Site
            {
              OFFSET 16.4037 0.713936 2.7358
            }
          }
        }
        JOINT LeftShoulder
        {
          OFFSET 17.7449 4.33886 11.7777
          CHANNELS 3 Zrotation Xrotation Yrotation
          JOINT LeftArm
          {
            OFFSET 0.911315 1.27913 9.80584
            CHANNELS 3 Zrotation Xrotation Yrotation
            JOINT LeftForeArm
            {
              OFFSET 28.6126 1.18197 -3.53199
              CHANNELS 3 Zrotation Xrotation Yrotation
              JOINT LeftHand
              {
                OFFSET 27.5088 0.0218783 0.327423
                CHANNELS 3 Zrotation Xrotation Yrotation
                End Site
                {
                  OFFSET 18.6038 -0.000155887 0.382096
                }
              }
            }
          }
        }
        JOINT RightShoulder
        {
          OFFSET 17.1009 2.89543 -12.2328
          CHANNELS 3 Zrotation Xrotation Yrotation
          JOINT RightArm
          {
            OFFSET 1.4228 0.178766 -10.211
            CHANNELS 3 Zrotation Xrotation Yrotation
            JOINT RightForeArm
            {
              OFFSET 28.733 1.87905 2.64907
              CHANNELS 3 Zrotation Xrotation Yrotation
              JOINT RightHand
              {
                OFFSET 27.4588 0.290562 -0.101845
                CHANNELS 3 Zrotation Xrotation Yrotation
                End Site
                {
                  OFFSET 17.8396 -0.255518 -0.000602873
                }
              }
            }
          }
        }
      }
    }
  }
  JOINT LeftUpLeg
  {
    OFFSET -5.61296 -2.22332 -10.2353
    CHANNELS 3 Zrotation Xrotation Yrotation
    JOINT LeftLeg
    {
      OFFSET 2.56703 -44.7417 -7.93097
      CHANNELS 3 Zrotation Xrotation Yrotation
      JOINT LeftFoot
      {
        OFFSET 3.16933 -46.5642 -3.96578
        CHANNELS 3 Zrotation Xrotation Yrotation
        JOINT LeftToeBase
        {
          OFFSET 0.346054 -6.02161 12.8035
          CHANNELS 3 Zrotation Xrotation Yrotation
          End Site
          {
            OFFSET 0.134235 -1.35082 5.13018
          }
        }
      }
    }
  }
  JOINT RightUpLeg
  {
    OFFSET -5.7928 -1.72406 10.6446
    CHANNELS 3 Zrotation Xrotation Yrotation
    JOINT RightLeg
    {
      OFFSET -2.57161 -44.7178 -7.85259
      CHANNELS 3 Zrotation Xrotation Yrotation
      JOINT RightFoot
      {
        OFFSET -3.10148 -46.5936 -4.03391
        CHANNELS 3 Zrotation Xrotation Yrotation
        JOINT RightToeBase
        {
          OFFSET -0.0828122 -6.13587 12.8035
          CHANNELS 3 Zrotation Xrotation Yrotation
          End Site
          {
            OFFSET -0.131328 -1.35082 5.13018
          }
        }
      }
    }
  }
}
MOTION
Frames: 12
Frame Time: 0.03333333333333333
0.0000 93.1000 0.0000 59.4243 -55.3669 -26.5427 -70.9378 0.0131 87.7839 69.5251 65.7957 13.4609 7.8904 14.1538 8.7624 -117.8388 20.7862 170.1696 -150.9226 62.0343 -170.6507 -1.6004 -21.8940 -26.9247 -60.9269 39.7962 -146.6665 32.2608 -3.5728 -95.2381 -0.1762 0.5056 0.1269 -1.8614 7.0244 33.8666 -102.5615 -30.1391 121.8951 10.8232 -4.5937 68.7424 0.1828 0.5513 0.6776 -60.0500 13.6625 114.3986 -1.4516 38.4804 2.1737 0.9665 -9.1040 -1.4851 6.8644 -15.6182 2.6095 -30.0449 -15.4626 78.5081 1.4437 42.2764 -6.3866 -16.0638 5.5251 1.4133 3.2969 -23.3803 9.2194 
0.0000 93.1000 0.0000 61.1544 -49.1261 -23.9844 -70.9332 -0.1074 87.8124 64.9277 66.2312 15.9167 9.0487 13.6204 9.3930 -116.6388 19.4374 162.2591 -148.8107 62.5878 -173.9854 -1.2957 -22.2780 -28.8507 -58.1197 37.7735 -145.8006 32.0412 -4.0598 -96.1824 0.0301 -0.0913 0.4414 -1.9344 6.5532 35.2568 -109.1337 -25.2777 122.2793 9.1024 -3.8925 66.1127 0.3916 -0.0940 1.0047 -56.1017 15.0682 111.1410 -2.8554 41.0670 -5.6887 -0.6393 -11.6503 -0.8478 7.3404 -16.2441 6.0721 -30.7569 -12.3395 90.7263 1.8412 40.2817 2.7473 -9.2902 7.0921 0.1899 3.2482 -24.8620 1.9690 
0.0000 93.1000 0.0000 63.7840 -43.7019 -20.0516 -70.9471 -0.1376 87.8583 63.9757 67.1595 14.4497 8.9979 14.5750 9.6238 -116.7254 19.1342 156.5945 -152.9373 64.1361 -171.5764 -1.3440 -22.4932 -30.7416 -58.2230 32.6384 -141.8029 31.4921 -3.9587 -95.9150 -0.5794 -0.2113 0.6517 -1.8385 6.0511 35.7527 -116.6514 -21.4958 118.7182 7.0739 -3.4531 63.1272 0.4560 -0.2412 0.7150 -50.6957 14.2030 107.7713 -4.1953 44.6499 -6.1609 0.2354 -14.9206 -1.0763 6.2237 -15.0733 5.8301 -32.0306 -13.2068 93.3888 1.2115 39.3817 0.6600 -7.0832 6.9112 -0.2096 2.3920 -20.1675 2.7824 
0.0000 93.1000 0.0000 66.1604 -38.5632 -15.6855 -70.9994 -0.1589 87.9373 73.9060 68.8851 7.9364 7.0803 16.8821 7.0931 -114.3554 18.3363 150.7211 -154.0809 65.9735 -171.6725 -1.3139 -22.6684 -30.7211 -56.5096 29.1755 -142.8473 31.4497 -3.9634 -95.9820 -0.5536 -0.3909 0.6333 -2.0659 6.1909 38.7694 -124.9355 -14.3880 114.4310 4.9006 -3.2679 61.2620 0.4847 -0.3873 0.5084 -46.7202 12.6109 102.5933 -4.1104 48.7186 -5.8348 1.7809 -17.7932 -1.5053 5.8689 -15.0072 7.3880 -32.9875 -16.1224 86.8453 0.0153 39.9748 -7.9413 -10.5364 3.3208 0.4128 1.0028 -16.7355 18.2195 
0.0000 93.1000 0.0000 66.6189 -35.5087 -15.2080 -71.0443 -0.3004 88.0004 80.0440 70.4520 3.3416 5.5434 19.0283 4.7080 -113.6411 18.3870 146.5028 -159.7656 67.8645 -166.5300 -0.5862 -22.6383 -31.5403 -56.6337 27.1642 -142.0937 29.8624 -3.8017 -96.0684 -0.8000 -1.1535 1.2499 -2.2489 6.2818 40.9225 -130.0903 -8.2175 112.5150 3.9284 -2.7393 58.4519 1.5036 -1.2381 0.9059 -43.1281 12.8591 100.7000 -5.0916 52.5917 -7.5738 2.1969 -18.3452 -0.9096 5.6081 -15.0095 11.2168 -32.7907 -18.8272 81.8071 0.1344 39.7844 -9.0752 -13.5626 1.2204 0.4815 1.3260 -16.1982 19.5957 
0.0000 93.1000 0.0000 67.9119 -34.4331 -14.8343 -71.0582 -0.2709 88.0201 85.1176 71.7888 -0.4776 4.8716 20.4332 3.2455 -113.1016 18.6472 147.9156 -169.0009 68.8313 -158.7445 -0.7365 -21.8337 -31.4304 -56.1234 27.1782 -141.1333 29.6786 -4.8802 -97.0358 -0.2807 -1.0065 1.1568 -2.4770 6.7261 42.1360 -132.7333 -3.5904 111.9318 1.4656 -1.7432 53.7348 1.2836 -1.0736 0.8394 -41.8120 13.3182 102.0314 -5.2006 53.5726 -9.2598 1.9186 -18.5511 -0.9972 5.5274 -14.8612 13.3319 -31.7831 -20.8370 81.1890 0.0661 41.4530 -7.8466 -11.3834 1.4112 0.3250 0.9463 -14.3632 18.4216 
0.0000 93.1000 0.0000 68.7817 -32.4702 -12.6661 -71.0773 0.3635 87.9549 89.0359 72.4632 -4.6073 5.6415 21.1558 3.5618 -113.4132 19.6796 148.5683 -173.4581 69.5854 -154.1765 -3.9310 -20.9067 -31.5538 -56.8344 27.4520 -139.1178 28.1381 -5.1082 -97.8683 0.6620 2.2554 -1.4110 -2.5897 7.1033 42.5949 -134.8668 -0.4262 112.0199 -0.7404 -1.2332 49.6430 -1.8745 2.5167 -1.1151 -40.5240 14.8254 101.9192 -6.2621 56.0337 -7.5280 1.2926 -18.7623 -3.9351 4.0982 -13.1144 15.5876 -32.1492 -23.2866 78.2521 1.1224 43.7591 -7.3962 -10.4488 1.3241 1.8487 1.4249 -15.9256 17.5137 
0.0000 93.1000 0.0000 69.9295 -30.2539 -10.7782 -71.1631 -0.2781 88.0314 89.9604 72.7598 -5.1516 5.0403 20.6477 4.1816 -112.1210 20.5256 148.1441 178.6759 69.4295 -145.8543 -0.5653 -21.5927 -32.1764 -56.1836 28.8939 -138.1710 28.0538 -5.6180 -98.7777 -0.4260 -1.0947 1.0139 -2.6379 7.0580 43.1348 -135.6112 2.7649 112.2296 -0.1209 -0.5890 47.4406 1.2695 -1.2496 0.8571 -39.3858 15.8385 100.6388 -5.7622 56.2486 -9.8586 1.0916 -19.0392 -0.8516 2.6139 -10.7007 14.0992 -33.7617 -26.3441 73.3321 1.3600 43.4208 -4.3117 -12.1997 1.8221 0.2945 1.0355 -15.7975 16.5574 
0.0000 93.1000 0.0000 69.9607 -28.2548 -9.8728 -71.1680 -0.2582 88.0406 86.2915 73.0893 -2.8250 5.6008 21.0067 3.4649 -113.6182 21.0086 149.7112 175.2887 69.0091 -143.7177 -0.5858 -21.5774 -32.5522 -56.8476 28.9202 -138.2156 26.1990 -5.9150 -99.9026 -0.3274 -1.0098 0.8668 -2.6869 6.9218 43.3639 -136.2577 2.9284 110.2983 0.4013 -1.2534 45.1313 1.3736 -1.1035 1.0674 -38.9667 14.8532 99.3060 -6.5483 57.7378 -10.9470 1.6798 -17.9799 -0.8331 3.2619 -12.5227 12.3625 -34.3149 -28.1303 70.6851 0.8814 45.7648 -2.7464 -12.4384 0.4619 0.3396 1.2928 -15.5150 15.2698 
0.0000 93.1000 0.0000 70.4476 -26.6230 -9.0763 -71.1680 -0.0716 88.0114 85.9162 72.7245 -2.1299 6.1043 20.9637 3.4013 -113.5098 20.9776 148.7571 174.4723 68.6437 -143.7371 -1.5383 -21.0615 -32.4060 -56.5569 29.2277 -138.2010 26.0569 -6.0408 -100.1730 -0.2705 -0.0288 0.2193 -2.7934 7.0936 43.8248 -137.8368 2.1421 109.0865 1.0327 -1.7988 44.1091 0.7109 -0.0339 0.3721 -38.1255 15.0018 97.8494 -7.2929 59.0304 -10.5966 0.8084 -18.3059 -1.6082 3.4773 -12.4784 11.6648 -34.8984 -29.0845 69.6562 0.9357 46.5292 -4.0932 -11.4350 -0.8405 0.7153 1.0721 -15.4606 16.5856 
0.0000 93.1000 0.0000 70.7691 -26.1430 -8.8295 -71.1641 -0.0359 88.0023 87.9364 72.9925 -2.8726 5.5849 21.2405 3.1666 -114.3799 21.7805 148.9328 175.3242 68.9741 -142.9930 -1.6427 -20.6813 -31.2946 -56.4058 29.9096 -139.1272 26.0320 -5.6058 -99.9266 -0.1159 0.1422 0.0504 -2.9417 6.8539 44.7895 -138.3803 3.4474 108.6967 1.0436 -2.6440 43.5510 0.5840 0.1691 0.3971 -36.7127 16.0743 98.0905 -7.3075 58.8532 -11.4098 0.9303 -18.2549 -1.7759 3.8914 -13.0343 11.0235 -35.1854 -28.8315 69.4985 1.3033 46.0302 -4.6352 -10.3665 -0.5970 0.5423 0.8791 -15.9242 14.7933 
0.0000 93.1000 0.0000 70.8990 -25.0033 -7.8244 -71.1725 -0.0229 88.0005 87.5518 72.4194 -2.4642 5.9169 20.7936 2.2228 -114.4620 22.2774 149.8570 174.5452 69.0608 -144.0257 -1.6853 -21.0135 -31.2682 -56.7577 29.7149 -140.1330 24.8428 -5.0830 -99.8370 -0.0521 0.1732 0.0159 -2.9560 7.1831 45.0080 -139.6056 3.7786 108.4207 1.2961 -2.8508 42.6117 0.4251 0.2298 0.3645 -36.2141 15.8231 96.9847 -6.7646 58.6978 -12.0273 1.3759 -17.9387 -1.8886 4.0428 -13.3311 10.7722 -35.6504 -28.2245 69.0476 1.5081 46.5475 -4.9506 -10.8472 -0.7153 0.6563 1.2937 -15.4601 16.1887 
